<?xml version="1.0" encoding="UTF-8" standalone="no"?>
<svg
   id="Layer_1"
   data-name="Layer 1"
   viewBox="0 0 16 16"
   version="1.1"
   sodipodi:docname="reconciliation-sign-icon.svg"
   width="16"
   height="16"
   inkscape:version="1.4 (86a8ad7, 2024-10-11)"
   xmlns:inkscape="http://www.inkscape.org/namespaces/inkscape"
   xmlns:sodipodi="http://sodipodi.sourceforge.net/DTD/sodipodi-0.dtd"
   xmlns="http://www.w3.org/2000/svg"
   xmlns:svg="http://www.w3.org/2000/svg"
   xmlns:rdf="http://www.w3.org/1999/02/22-rdf-syntax-ns#"
   xmlns:cc="http://creativecommons.org/ns#"
   xmlns:dc="http://purl.org/dc/elements/1.1/">
  <defs
     id="defs1" />
  <sodipodi:namedview
     id="namedview1"
     pagecolor="#505050"
     bordercolor="#eeeeee"
     borderopacity="1"
     inkscape:showpageshadow="0"
     inkscape:pageopacity="0"
     inkscape:pagecheckerboard="0"
     inkscape:deskcolor="#505050"
     inkscape:zoom="10.932737"
     inkscape:cx="60.689288"
     inkscape:cy="67.869557"
     inkscape:window-width="5120"
     inkscape:window-height="2089"
     inkscape:window-x="1192"
     inkscape:window-y="-8"
     inkscape:window-maximized="1"
     inkscape:current-layer="Layer_1" />
  <title
     id="title1">reconciliation-sign</title>
  <path
     d="m 7.0071833,3.4177412 c 0.020819,0.5621121 0,1.1710668 0,1.73448 h 1.9830064 v -1.73448 a 3.5027907,3.5027907 0 1 1 3.5053933,3.56785 H 10.82356 v 1.9335613 h 1.672023 A 3.5014895,3.5014895 0 1 1 8.9901897,12.488304 V 10.752522 H 7.0071833 v 1.735782 A 3.5014895,3.5014895 0 1 1 3.5056938,8.9191525 H 5.1738133 V 6.9855912 H 3.5056938 a 3.5014895,3.5014895 0 1 1 3.5014895,-3.56785 z M 10.82356,10.752522 v 1.66812 a 1.6681195,1.6681195 0 1 0 1.672023,-1.66812 z M 8.9901897,6.9855912 H 7.0071833 V 8.9191525 H 8.9901897 Z M 10.82356,3.4958124 v 1.6564088 h 1.672023 A 1.6694207,1.6694207 0 1 0 10.82356,3.4841017 Z M 5.1738133,12.408931 V 10.752522 H 3.5056938 a 1.6694207,1.6694207 0 1 0 1.6681195,1.66812 z m 0,-7.2567098 V 3.4841017 A 1.6694207,1.6694207 0 1 0 3.5056938,5.1522212 Z"
     id="path1"
     style="fill:#ffffff;fill-opacity:1;stroke-width:0.130119" />
  <metadata
     id="metadata1">
    <rdf:RDF>
      <cc:Work
         rdf:about="">
        <dc:title>reconciliation-sign</dc:title>
      </cc:Work>
    </rdf:RDF>
  </metadata>
</svg>
