<?xml version="1.0" encoding="UTF-8" standalone="no"?>
<svg
   id="Layer_1"
   data-name="Layer 1"
   viewBox="0 0 16 16"
   version="1.1"
   sodipodi:docname="Icon_Unreconciled.svg"
   width="16"
   height="16"
   inkscape:version="1.4 (86a8ad7, 2024-10-11)"
   xmlns:inkscape="http://www.inkscape.org/namespaces/inkscape"
   xmlns:sodipodi="http://sodipodi.sourceforge.net/DTD/sodipodi-0.dtd"
   xmlns="http://www.w3.org/2000/svg"
   xmlns:svg="http://www.w3.org/2000/svg"
   xmlns:rdf="http://www.w3.org/1999/02/22-rdf-syntax-ns#"
   xmlns:cc="http://creativecommons.org/ns#"
   xmlns:dc="http://purl.org/dc/elements/1.1/">
  <defs
     id="defs1" />
  <sodipodi:namedview
     id="namedview1"
     pagecolor="#505050"
     bordercolor="#eeeeee"
     borderopacity="1"
     inkscape:showpageshadow="0"
     inkscape:pageopacity="0"
     inkscape:pagecheckerboard="0"
     inkscape:deskcolor="#505050"
     inkscape:zoom="61.8449"
     inkscape:cx="8.8851304"
     inkscape:cy="6.742674"
     inkscape:window-width="5120"
     inkscape:window-height="2089"
     inkscape:window-x="1192"
     inkscape:window-y="-8"
     inkscape:window-maximized="1"
     inkscape:current-layer="Layer_1" />
  <title
     id="title1">reconciliation-sign</title>
  <path
     d="m 8.9902344,5.1523437 v 1.8339844 1.9335938 1.8320311 1.736328 A 3.5014895,3.5014895 0 1 0 12.496094,8.9199219 h -0.002 v 1.8320311 h 0.002 a 1.6681195,1.6681195 0 1 1 -1.671875,1.667969 v -1.667969 h 0.002 V 8.9199219 h -0.002 V 6.9863281 h 0.002 V 5.1523437 h -0.002 V 3.4960938 3.484375 a 1.6694207,1.6694207 0 1 1 1.671875,1.6679687 h -0.002 v 1.8339844 h 0.002 A 3.5027907,3.5027907 0 1 0 8.9902344,3.4179688 Z"
     style="fill:#ffffff;stroke-width:0.130119"
     id="path3" />
  <path
     d="M 3.4628906,-0.01757813 A 3.502019,3.502019 0 0 0 3.5058594,6.9863281 V 5.1523437 A 1.6694207,1.6694207 0 1 1 5.1738281,3.484375 v 1.6679687 1.8339844 1.9335938 1.8320311 1.65625 0.01172 A 1.6694207,1.6694207 0 1 1 3.5058594,10.751953 V 8.9199219 A 3.5014895,3.5014895 0 1 0 7.0078125,12.488281 V 10.751953 8.9199219 6.9863281 5.1523437 c 0,-0.5634131 0.020819,-1.1722628 0,-1.7343749 A 3.5014895,3.5014895 0 0 0 3.4628906,-0.01757813 Z"
     style="fill:#ffffff;stroke-width:0.130119"
     id="path2" />
  <metadata
     id="metadata1">
    <rdf:RDF>
      <cc:Work
         rdf:about="">
        <dc:title>reconciliation-sign</dc:title>
      </cc:Work>
    </rdf:RDF>
  </metadata>
</svg>
